<svg width="20" height="20" viewBox="0 0 20 20" fill="none" xmlns="http://www.w3.org/2000/svg">
<path d="M10 1.66669C5.4 1.66669 1.66666 5.40002 1.66666 10C1.66666 14.6 5.4 18.3334 10 18.3334C14.6 18.3334 18.3333 14.6 18.3333 10C18.3333 5.40002 14.6 1.66669 10 1.66669ZM10 4.16669C11.3833 4.16669 12.5 5.28335 12.5 6.66669C12.5 8.05002 11.3833 9.16669 10 9.16669C8.61666 9.16669 7.5 8.05002 7.5 6.66669C7.5 5.28335 8.61666 4.16669 10 4.16669ZM10 16C7.91666 16 6.075 14.9334 5 13.3167C5.025 11.6584 8.33333 10.75 10 10.75C11.6583 10.75 14.975 11.6584 15 13.3167C13.925 14.9334 12.0833 16 10 16Z" fill="#92F8FF"/>
</svg>
