<svg width="16" height="16" viewBox="0 0 16 16" fill="none" xmlns="http://www.w3.org/2000/svg">
<path d="M12 8.66659H8.66668V11.9999C8.66668 12.3666 8.36668 12.6666 8.00001 12.6666C7.63334 12.6666 7.33334 12.3666 7.33334 11.9999V8.66659H4.00001C3.63334 8.66659 3.33334 8.36659 3.33334 7.99992C3.33334 7.63325 3.63334 7.33325 4.00001 7.33325H7.33334V3.99992C7.33334 3.63325 7.63334 3.33325 8.00001 3.33325C8.36668 3.33325 8.66668 3.63325 8.66668 3.99992V7.33325H12C12.3667 7.33325 12.6667 7.63325 12.6667 7.99992C12.6667 8.36659 12.3667 8.66659 12 8.66659Z" fill="white"/>
</svg>
