<svg width="20" height="20" viewBox="0 0 20 20" fill="none" xmlns="http://www.w3.org/2000/svg">
<path d="M14.1667 9.16674C14.45 9.16674 14.725 9.20007 15 9.24174V6.31674C15 5.65007 14.6083 5.05007 14 4.79174L9.41667 2.79174C8.99167 2.6084 8.50833 2.6084 8.08333 2.79174L3.5 4.79174C2.89167 5.0584 2.5 5.6584 2.5 6.31674V9.31674C2.5 13.1001 5.16667 16.6417 8.75 17.5001C9.20833 17.3917 9.65 17.2334 10.0833 17.0417C9.50833 16.2251 9.16667 15.2334 9.16667 14.1667C9.16667 11.4084 11.4083 9.16674 14.1667 9.16674Z" fill="#5F5F5F"/>
<path d="M14.1667 10.8333C12.325 10.8333 10.8333 12.325 10.8333 14.1666C10.8333 16.0083 12.325 17.5 14.1667 17.5C16.0083 17.5 17.5 16.0083 17.5 14.1666C17.5 12.325 16.0083 10.8333 14.1667 10.8333ZM14.1667 11.9833C14.6833 11.9833 15.1 12.4083 15.1 12.9166C15.1 13.425 14.675 13.85 14.1667 13.85C13.6583 13.85 13.2333 13.425 13.2333 12.9166C13.2333 12.4083 13.65 11.9833 14.1667 11.9833ZM14.1667 16.4583C13.3917 16.4583 12.7167 16.075 12.3 15.4833C12.3417 14.8833 13.5583 14.5833 14.1667 14.5833C14.775 14.5833 15.9917 14.8833 16.0333 15.4833C15.6167 16.075 14.9417 16.4583 14.1667 16.4583Z" fill="#5F5F5F"/>
</svg>
