<svg width="24" height="22" viewBox="0 0 24 22" fill="none" xmlns="http://www.w3.org/2000/svg">
<path d="M18.7417 2.75002H14.7591C14.3589 1.68669 13.3108 0.916687 12.0722 0.916687C10.8336 0.916687 9.78556 1.68669 9.38539 2.75002H5.40278C4.35472 2.75002 3.49722 3.57502 3.49722 4.58335V17.4167C3.49722 18.425 4.35472 19.25 5.40278 19.25H18.7417C19.7897 19.25 20.6472 18.425 20.6472 17.4167V4.58335C20.6472 3.57502 19.7897 2.75002 18.7417 2.75002ZM13.025 16.5H11.1194V14.6667H13.025V16.5ZM13.025 11.9167C13.025 12.4209 12.5963 12.8334 12.0722 12.8334C11.5482 12.8334 11.1194 12.4209 11.1194 11.9167V8.25002C11.1194 7.74585 11.5482 7.33335 12.0722 7.33335C12.5963 7.33335 13.025 7.74585 13.025 8.25002V11.9167ZM12.0722 4.58335C11.5482 4.58335 11.1194 4.17085 11.1194 3.66669C11.1194 3.16252 11.5482 2.75002 12.0722 2.75002C12.5963 2.75002 13.025 3.16252 13.025 3.66669C13.025 4.17085 12.5963 4.58335 12.0722 4.58335Z" fill="#92F8FF"/>
</svg>
