<svg width="20" height="20" viewBox="0 0 20 20" fill="none" xmlns="http://www.w3.org/2000/svg">
<path d="M9.16666 2.64994V17.3499C9.16666 17.8833 8.675 18.2833 8.15833 18.1666C4.43333 17.3333 1.66666 13.9916 1.66666 9.99994C1.66666 6.00828 4.43333 2.66661 8.15833 1.83327C8.675 1.71661 9.16666 2.11661 9.16666 2.64994ZM10.8583 2.64994V8.32494C10.8583 8.78328 11.2333 9.15828 11.6917 9.15828H17.35C17.8833 9.15828 18.2833 8.66661 18.1667 8.14161C17.4583 5.00828 15 2.54161 11.875 1.83327C11.35 1.71661 10.8583 2.11661 10.8583 2.64994ZM10.8583 11.6749V17.3499C10.8583 17.8833 11.35 18.2833 11.875 18.1666C15.0083 17.4583 17.4667 14.9833 18.175 11.8499C18.2917 11.3333 17.8833 10.8333 17.3583 10.8333H11.7C11.2333 10.8416 10.8583 11.2166 10.8583 11.6749Z" fill="#92F8FF"/>
</svg>
