<svg width="18" height="18" viewBox="0 0 18 18" fill="none" xmlns="http://www.w3.org/2000/svg">
<path d="M14.25 2.25H3.7425C2.9175 2.25 2.25 2.925 2.25 3.75L2.2575 14.25C2.2575 15.075 2.925 15.75 3.75 15.75H11.25L15.75 11.25V3.75C15.75 2.925 15.075 2.25 14.25 2.25ZM6 6H12C12.4125 6 12.75 6.3375 12.75 6.75C12.75 7.1625 12.4125 7.5 12 7.5H6C5.5875 7.5 5.25 7.1625 5.25 6.75C5.25 6.3375 5.5875 6 6 6ZM8.25 10.5H6C5.5875 10.5 5.25 10.1625 5.25 9.75C5.25 9.3375 5.5875 9 6 9H8.25C8.6625 9 9 9.3375 9 9.75C9 10.1625 8.6625 10.5 8.25 10.5ZM10.5 14.625V11.25C10.5 10.8375 10.8375 10.5 11.25 10.5H14.625L10.5 14.625Z" fill="#797979"/>
</svg>
