<svg width="20" height="20" viewBox="0 0 20 20" fill="none" xmlns="http://www.w3.org/2000/svg">
<path d="M13.25 4.16661C13.1083 4.16661 12.9833 4.24161 12.9083 4.35827L12.85 4.48327L8.53331 14.1916C8.39998 14.4333 8.31665 14.6999 8.31665 14.9916C8.31665 15.9166 9.06665 16.6666 9.99165 16.6666C10.7916 16.6666 11.4666 16.0999 11.625 15.3416L11.6333 15.3166L13.6666 4.58327C13.6666 4.34994 13.4833 4.16661 13.25 4.16661ZM1.71665 8.38327C2.14165 8.80827 2.82498 8.84161 3.29165 8.45827C5.59165 6.57494 8.49165 5.80827 11.275 6.15827L12.2666 3.92494C8.64165 3.27494 4.79998 4.17494 1.79165 6.63327C1.25831 7.07494 1.22498 7.89161 1.71665 8.38327ZM18.2833 8.38327C18.775 7.89161 18.7416 7.07494 18.2 6.63327C17.0666 5.70827 15.8166 5.00827 14.5 4.52494L14.0583 6.87494C15 7.26661 15.8833 7.78327 16.7 8.44994C17.1833 8.83327 17.8583 8.80827 18.2833 8.38327ZM14.925 11.7416C15.425 11.2416 15.3916 10.3833 14.8083 9.97494C14.425 9.69994 14.025 9.46661 13.6083 9.25827L13.15 11.6916C13.2416 11.7499 13.3333 11.8083 13.4166 11.8749C13.8916 12.2083 14.525 12.1416 14.925 11.7416ZM5.06665 11.7333C5.48331 12.1499 6.12498 12.1833 6.60831 11.8416C7.39165 11.2916 8.28331 10.9583 9.19165 10.8249L10.2583 8.42494C8.48331 8.37494 6.69165 8.87494 5.18331 9.95827C4.60831 10.3833 4.56665 11.2333 5.06665 11.7333Z" fill="#AFAFAF"/>
<path d="M0 0V-1H-1V0H0ZM20 0H21V-1H20V0ZM20 20V21H21V20H20ZM0 20H-1V21H0V20ZM0 1H20V-1H0V1ZM19 0V20H21V0H19ZM20 19H0V21H20V19ZM1 20V0H-1V20H1Z" fill="black"/>
<path d="M0 0V-1H-1V0H0ZM20 0H21V-1H20V0ZM20 20V21H21V20H20ZM0 20H-1V21H0V20ZM0 1H20V-1H0V1ZM19 0V20H21V0H19ZM20 19H0V21H20V19ZM1 20V0H-1V20H1Z" fill="black" fill-opacity="0.2"/>
</svg>
