<svg width="20" height="20" viewBox="0 0 20 20" fill="none" xmlns="http://www.w3.org/2000/svg">
<path d="M13.25 4.16667C13.1083 4.16667 12.9833 4.24167 12.9083 4.35833L12.85 4.48333L8.53331 14.1917C8.39998 14.4333 8.31665 14.7 8.31665 14.9917C8.31665 15.9167 9.06665 16.6667 9.99165 16.6667C10.7916 16.6667 11.4666 16.1 11.625 15.3417L11.6333 15.3167L13.6666 4.58333C13.6666 4.35 13.4833 4.16667 13.25 4.16667ZM1.71665 8.38333C2.14165 8.80833 2.82498 8.84167 3.29165 8.45833C5.59165 6.575 8.49165 5.80833 11.275 6.15833L12.2666 3.925C8.64165 3.275 4.79998 4.175 1.79165 6.63333C1.25831 7.075 1.22498 7.89167 1.71665 8.38333ZM18.2833 8.38333C18.775 7.89167 18.7416 7.075 18.2 6.63333C17.0666 5.70833 15.8166 5.00833 14.5 4.525L14.0583 6.875C15 7.26667 15.8833 7.78333 16.7 8.45C17.1833 8.83333 17.8583 8.80833 18.2833 8.38333ZM14.925 11.7417C15.425 11.2417 15.3916 10.3833 14.8083 9.975C14.425 9.7 14.025 9.46667 13.6083 9.25833L13.15 11.6917C13.2416 11.75 13.3333 11.8083 13.4166 11.875C13.8916 12.2083 14.525 12.1417 14.925 11.7417ZM5.06665 11.7333C5.48331 12.15 6.12498 12.1833 6.60831 11.8417C7.39165 11.2917 8.28331 10.9583 9.19165 10.825L10.2583 8.425C8.48331 8.375 6.69165 8.875 5.18331 9.95833C4.60831 10.3833 4.56665 11.2333 5.06665 11.7333Z" fill="#5F5F5F"/>
</svg>
