<svg width="793" height="663" viewBox="0 0 793 663" fill="none" xmlns="http://www.w3.org/2000/svg">
<path d="M153.284 412.831C154.168 411.881 154.986 410.985 155.738 410.148C154.009 413.172 151.802 416.905 149.123 421.197C141.64 433.186 130.481 449.526 115.783 466.922C86.3747 501.727 42.8619 540.683 -13.6581 557.55C-76.7175 576.369 -139.699 560.804 -190.231 529.519C-240.781 498.222 -278.741 451.273 -291.792 407.54C-306.266 359.042 -302.722 322.972 -284.379 295.649C-266.005 268.281 -232.64 249.467 -186.964 235.835C-143.441 222.846 -82.9492 223.932 -14.9457 232.454C53.0274 240.972 128.37 256.9 201.534 273.498C220.44 277.787 239.201 282.122 257.652 286.384C310.585 298.612 360.961 310.25 404.847 318.536C434.442 324.125 461.115 328.195 483.656 329.896C506.173 331.595 524.666 330.938 537.848 327.004C572.314 316.718 596.227 294.241 608.387 263.906C620.537 233.597 620.926 195.527 608.545 154.041C596.157 112.531 574.326 82.8222 546.626 66.1552C518.915 49.4818 485.442 45.9286 449.924 56.5283C385.735 75.6847 328.435 122.701 287.226 164.843C266.611 185.925 249.999 205.811 238.541 220.427C232.811 227.736 228.369 233.728 225.358 237.895C224.452 239.15 223.675 240.239 223.032 241.149C223.236 239.528 223.519 237.428 223.899 234.897C224.879 228.37 226.506 218.971 229.092 207.501C234.263 184.559 243.267 153.342 258.593 120.243C289.246 54.0411 345.147 -19.6128 446.204 -49.7719C509.18 -68.566 566.82 -61.7066 614.292 -31.5126C661.784 -1.30621 699.221 52.332 721.599 127.316C749.291 220.109 734.95 287.917 704.646 335.239C674.317 382.6 627.926 409.558 591.355 420.473C542.7 434.993 481.949 432.332 415.344 420.913C348.755 409.497 276.442 389.351 204.702 368.999C200.79 367.89 196.88 366.779 192.972 365.67C125.244 346.437 58.3336 327.437 -2.34616 315.912C-66.5023 303.727 -123.856 299.862 -167.931 313.016C-188.799 319.243 -200.323 331.629 -205.803 345.15C-211.265 358.627 -210.695 373.158 -207.543 383.72C-197.035 418.93 -160.294 452.32 -115.406 473.625C-70.4904 494.944 -17.1176 504.311 26.9233 491.168C70.8116 478.07 104.592 455.951 127.398 437.11C138.803 427.689 147.467 419.085 153.284 412.831Z" stroke="#92F8FF" stroke-width="2"/>
<path d="M121.419 432.036C122.444 431.239 123.395 430.486 124.272 429.781C122.08 432.488 119.303 435.82 115.972 439.626C106.664 450.262 93.0312 464.602 75.7354 479.418C41.13 509.062 -8.06259 540.541 -66.5551 548.134C-131.815 556.606 -191.489 531.149 -236.354 492.172C-281.237 453.179 -311.183 400.755 -317.058 355.496C-323.574 305.304 -314.296 270.269 -291.812 246.238C-269.29 222.168 -233.341 208.943 -186.071 202.807C-141.029 196.96 -81.4932 207.724 -15.7339 227.033C49.996 246.332 121.813 274.127 191.372 302.235C209.346 309.498 227.171 316.782 244.7 323.946C294.99 344.498 342.85 364.057 384.841 379.269C413.158 389.527 438.835 397.819 460.812 403.11C482.765 408.395 501.124 410.709 514.766 408.939C550.435 404.308 577.641 385.953 594.505 357.958C611.354 329.988 617.838 292.472 612.265 249.538C606.688 206.58 589.9 173.757 565.229 152.867C540.547 131.968 508.076 123.097 471.319 127.869C404.889 136.492 340.796 173.72 293.367 208.714C269.64 226.22 250.057 243.187 236.404 255.779C229.578 262.075 224.233 267.278 220.593 270.909C219.497 272.002 218.556 272.952 217.776 273.747C218.237 272.18 218.852 270.153 219.633 267.716C221.646 261.43 224.758 252.413 229.149 241.506C237.93 219.689 251.819 190.318 272.251 160.102C313.116 99.6675 380.096 35.9226 484.68 22.3463C549.854 13.886 605.65 29.8928 647.67 67.3034C689.708 104.729 718.067 163.673 728.14 241.274C740.606 337.305 715.585 401.939 678.089 443.794C640.564 485.683 590.453 504.86 552.605 509.773C502.253 516.309 442.713 503.949 378.798 482.004C314.898 460.065 246.748 428.593 179.196 397.009C175.512 395.287 171.831 393.564 168.151 391.843C104.38 362.007 41.3789 332.53 -16.6701 311.431C-78.0448 289.123 -134.038 276.118 -179.652 282.039C-201.248 284.843 -214.607 295.222 -222.183 307.69C-229.734 320.118 -231.5 334.552 -230.081 345.483C-225.351 381.922 -194.434 420.767 -153.54 448.99C-112.621 477.23 -61.439 495.029 -15.8612 489.112C29.5587 483.216 66.4471 466.796 91.9776 451.853C104.744 444.381 114.675 437.276 121.419 432.036Z" stroke="#192E30" stroke-width="2"/>
</svg>
