<svg width="671" height="1080" viewBox="0 0 671 1080" fill="none" xmlns="http://www.w3.org/2000/svg">
<path d="M610.662 514.992C610.789 516.283 610.919 517.49 611.048 518.607C609.927 515.309 608.591 511.183 607.149 506.334C603.12 492.788 598.265 473.606 594.962 451.073C588.354 405.988 587.976 347.587 612.763 294.064C640.417 234.349 693.786 197.461 750.69 180.312C807.616 163.156 867.933 165.799 909.346 184.978C955.273 206.247 979.955 232.787 988.283 264.624C996.624 296.515 988.629 333.976 968.598 377.23C949.511 418.445 908.642 463.055 857.225 508.37C805.832 553.665 744.007 599.576 683.121 643.411C667.388 654.737 651.717 665.926 636.306 676.93C592.092 708.498 550.013 738.541 514.743 765.94C490.958 784.416 470.246 801.708 454.045 817.473C437.862 833.221 426.109 847.513 420.328 859.996C405.213 892.634 406.222 925.437 420.901 954.637C435.568 983.811 463.838 1009.31 503.124 1027.51C542.432 1045.71 579.15 1049.02 609.982 1039.3C640.825 1029.58 665.653 1006.85 681.229 973.214C709.379 912.428 712.09 838.358 707.799 779.573C705.652 750.165 701.75 724.549 698.385 706.284C696.702 697.151 695.153 689.854 694.024 684.839C693.685 683.329 693.383 682.026 693.127 680.941C694.207 682.167 695.592 683.769 697.238 685.73C701.48 690.787 707.445 698.23 714.328 707.763C728.095 726.83 745.525 754.248 760.18 787.65C789.49 854.457 807.666 945.118 763.348 1040.82C735.731 1100.45 692.423 1139.1 638.362 1154.68C584.279 1170.27 519.295 1162.8 448.288 1129.92C360.417 1089.22 319.102 1033.58 303.707 979.533C288.3 925.446 298.818 872.831 314.856 838.199C336.193 792.125 378.415 748.363 431.077 706.014C483.725 663.675 546.705 622.828 609.46 582.546C612.882 580.349 616.303 578.155 619.721 575.962C678.981 537.945 737.526 500.387 786.343 462.548C837.957 422.541 878.831 382.123 898.16 340.385C907.312 320.623 905.662 303.787 899.158 290.727C892.676 277.71 881.41 268.515 871.408 263.883C838.065 248.442 788.715 253.864 743.027 273.393C697.31 292.934 654.948 326.726 635.634 368.431C616.387 409.991 610.594 449.952 609.61 479.517C609.118 494.301 609.828 506.492 610.662 514.992Z" stroke="#92F8FF" stroke-width="2"/>
<path d="M617.372 478.397C617.29 479.692 617.225 480.904 617.173 482.028C616.595 478.592 615.938 474.306 615.291 469.289C613.485 455.272 611.766 435.559 612.117 412.788C612.818 367.228 621.803 309.52 654.846 260.661C691.711 206.149 750.302 178.289 809.218 170.479C868.157 162.667 927.271 174.941 965.076 200.508C1007 228.861 1027.11 259.013 1030.23 291.773C1033.35 324.589 1019.46 360.285 992.757 399.769C967.313 437.394 919.823 474.879 861.81 511.37C803.823 547.844 735.44 583.255 668.317 616.767C650.973 625.427 633.711 633.96 616.736 642.352C568.034 666.427 521.685 689.34 482.481 710.733C456.043 725.159 432.827 738.909 414.31 751.874C395.812 764.826 381.921 777.05 374.215 788.445C354.065 818.24 349.805 850.78 359.616 881.955C369.418 913.102 393.237 942.803 429.1 967.057C464.983 991.324 500.696 1000.48 532.687 995.824C564.69 991.167 592.839 972.709 613.603 942.006C651.13 886.516 665.674 813.838 670.858 755.125C673.451 725.753 673.704 699.842 673.309 681.274C673.111 671.989 672.752 664.539 672.441 659.407C672.348 657.862 672.259 656.527 672.18 655.416C673.049 656.799 674.16 658.603 675.47 660.802C678.847 666.473 683.543 674.776 688.809 685.288C699.343 706.315 712.155 736.172 721.268 771.491C739.494 842.131 742.909 934.533 683.829 1021.89C647.013 1076.33 598.071 1107.54 542.212 1114.26C486.331 1120.98 423.383 1103.2 358.562 1059.36C278.347 1005.11 246.482 943.563 239.947 887.75C233.406 831.894 252.218 781.644 273.599 750.029C302.043 707.97 350.731 671.539 409.498 638.175C468.25 604.82 536.962 574.592 605.361 544.886C609.09 543.266 612.818 541.648 616.544 540.031C681.13 512.001 744.936 484.309 799.186 454.781C856.543 423.562 903.366 390.216 929.133 352.114C941.333 334.074 942.402 317.191 938.075 303.258C933.762 289.37 924.116 278.489 914.985 272.314C884.547 251.729 834.966 249.174 786.739 261.13C738.481 273.092 691.252 299.66 665.505 337.731C639.848 375.671 627.726 414.187 622.017 443.212C619.162 457.727 617.91 469.873 617.372 478.397Z" stroke="#192E30" stroke-width="2"/>
</svg>
