<svg width="265" height="45" viewBox="0 0 265 45" fill="none" xmlns="http://www.w3.org/2000/svg">
<path d="M44.7797 15.3087C44.7797 15.3087 53.2397 8.37045 61.35 8.37045C65.825 8.37045 68.831 11.4997 68.831 16.737C68.831 21.9744 66.1044 25.5116 61.7695 25.5116C55.1738 25.5116 32.2425 7.62286 21.1486 7.62286C15.3455 7.62286 12 9.68585 12 15.8531C12 21.4308 17.6088 29.4704 25.6494 29.4704C32.8511 29.4704 38.539 23.4001 38.539 23.4001C38.539 23.4001 34.7121 26.1915 29.166 26.1915C23.62 26.1915 17.4412 20.342 17.4412 15.93C17.4412 14.6146 18.3051 12.565 20.9157 12.565C32.0345 12.565 50.8621 32 63.2609 32C67.9224 32 76 28.9344 76 17.1451C76 7.62286 70.998 2 62.9806 2C50.1169 2 44.7797 15.3087 44.7797 15.3087Z" fill="#BDF7FF"/>
<path d="M95.494 23H98.41V10.4H95.494V23ZM117.636 10.4V18.05L111.372 10.4H108.96V23H111.84V15.35L118.122 23H120.516V10.4H117.636ZM140.579 12.74V10.4H131.057V23H133.973V18.41H139.805V16.07H133.973V12.74H140.579ZM150.113 23H153.029V10.4H150.113V23ZM172.256 10.4V18.05L165.992 10.4H163.58V23H166.46V15.35L172.742 23H175.136V10.4H172.256ZM185.677 23H188.593V10.4H185.677V23ZM201.753 23H204.669V12.776H208.701V10.4H197.721V12.776H201.753V23ZM228.545 10.4H225.683L222.317 15.998L218.951 10.4H215.855L220.733 18.5V23H223.649V18.536L228.545 10.4Z" fill="white"/>
<path d="M163.213 33.6H159.757V42H161.317V39.576H163.213C165.421 39.576 166.789 38.436 166.789 36.588C166.789 34.728 165.421 33.6 163.213 33.6ZM163.141 38.256H161.317V34.92H163.141C164.509 34.92 165.217 35.532 165.217 36.588C165.217 37.644 164.509 38.256 163.141 38.256ZM171.059 42.084C173.051 42.084 174.479 40.716 174.479 38.796C174.479 36.876 173.051 35.52 171.059 35.52C169.091 35.52 167.651 36.876 167.651 38.796C167.651 40.716 169.091 42.084 171.059 42.084ZM171.059 40.8C169.979 40.8 169.163 40.02 169.163 38.796C169.163 37.572 169.979 36.792 171.059 36.792C172.151 36.792 172.967 37.572 172.967 38.796C172.967 40.02 172.151 40.8 171.059 40.8ZM184.402 35.592L182.662 40.344L180.934 35.592H179.674L177.91 40.32L176.218 35.592H174.802L177.154 42H178.594L180.274 37.584L181.93 42H183.37L185.734 35.592H184.402ZM192.613 38.832C192.613 36.828 191.245 35.52 189.373 35.52C187.465 35.52 186.061 36.888 186.061 38.796C186.061 40.704 187.453 42.084 189.601 42.084C190.705 42.084 191.605 41.724 192.181 41.04L191.377 40.116C190.921 40.584 190.357 40.812 189.637 40.812C188.521 40.812 187.741 40.212 187.561 39.276H192.589C192.601 39.132 192.613 38.952 192.613 38.832ZM189.373 36.72C190.357 36.72 191.065 37.356 191.185 38.28H187.549C187.693 37.344 188.401 36.72 189.373 36.72ZM195.482 36.528V35.592H194.054V42H195.554V38.892C195.554 37.584 196.274 36.912 197.414 36.912C197.522 36.912 197.63 36.924 197.762 36.948V35.52C196.694 35.52 195.914 35.856 195.482 36.528ZM205 38.832C205 36.828 203.632 35.52 201.76 35.52C199.852 35.52 198.448 36.888 198.448 38.796C198.448 40.704 199.84 42.084 201.988 42.084C203.092 42.084 203.992 41.724 204.568 41.04L203.764 40.116C203.308 40.584 202.744 40.812 202.024 40.812C200.908 40.812 200.128 40.212 199.948 39.276H204.976C204.988 39.132 205 38.952 205 38.832ZM201.76 36.72C202.744 36.72 203.452 37.356 203.572 38.28H199.936C200.08 37.344 200.788 36.72 201.76 36.72ZM211.217 33.096V36.384C210.713 35.796 209.981 35.52 209.153 35.52C207.293 35.52 205.913 36.804 205.913 38.796C205.913 40.788 207.293 42.084 209.153 42.084C210.029 42.084 210.773 41.784 211.277 41.172V42H212.717V33.096H211.217ZM209.333 40.8C208.253 40.8 207.425 40.02 207.425 38.796C207.425 37.572 208.253 36.792 209.333 36.792C210.413 36.792 211.241 37.572 211.241 38.796C211.241 40.02 210.413 40.8 209.333 40.8ZM221.548 35.52C220.732 35.52 220.012 35.796 219.496 36.372V33.096H217.996V42H219.424V41.172C219.928 41.784 220.672 42.084 221.548 42.084C223.42 42.084 224.8 40.788 224.8 38.796C224.8 36.804 223.42 35.52 221.548 35.52ZM221.38 40.8C220.3 40.8 219.472 40.02 219.472 38.796C219.472 37.572 220.3 36.792 221.38 36.792C222.46 36.792 223.276 37.572 223.276 38.796C223.276 40.02 222.46 40.8 221.38 40.8ZM230.607 35.592L228.579 40.332L226.562 35.592H225.002L227.799 42.024L227.691 42.276C227.403 42.912 227.091 43.164 226.562 43.164C226.155 43.164 225.747 42.996 225.458 42.72L224.858 43.824C225.267 44.196 225.939 44.412 226.575 44.412C227.643 44.412 228.459 43.968 229.047 42.516L232.047 35.592H230.607Z" fill="#5F5F5F"/>
</svg>
