<svg width="17" height="13" viewBox="0 0 17 13" fill="none" xmlns="http://www.w3.org/2000/svg">
<path d="M14.3912 1.20652C13.3077 0.732147 12.1458 0.382651 10.9309 0.18248C10.9088 0.178617 10.8867 0.188272 10.8753 0.207581C10.7259 0.461172 10.5604 0.792003 10.4444 1.05203C9.13779 0.865384 7.83784 0.865384 6.55798 1.05203C6.44204 0.786223 6.27051 0.461172 6.12041 0.207581C6.10901 0.188916 6.08691 0.179261 6.06479 0.18248C4.8506 0.382011 3.68869 0.731507 2.6045 1.20652C2.59511 1.21038 2.58706 1.21682 2.58173 1.22518C0.377819 4.36681 -0.225923 7.43121 0.0702526 10.4576C0.0715927 10.4724 0.0803037 10.4866 0.0923653 10.4956C1.54644 11.5145 2.95496 12.133 4.33732 12.543C4.35945 12.5495 4.38289 12.5417 4.39697 12.5244C4.72397 12.0983 5.01546 11.649 5.26538 11.1766C5.28013 11.1489 5.26605 11.1161 5.2359 11.1051C4.77355 10.9378 4.3333 10.7337 3.90981 10.502C3.87631 10.4834 3.87363 10.4377 3.90445 10.4158C3.99356 10.3521 4.08271 10.2858 4.1678 10.2188C4.1832 10.2066 4.20465 10.204 4.22275 10.2117C7.00491 11.4237 10.0169 11.4237 12.7663 10.2117C12.7844 10.2034 12.8058 10.206 12.8219 10.2182C12.907 10.2851 12.9961 10.3521 13.0859 10.4158C13.1167 10.4377 13.1147 10.4834 13.0812 10.502C12.6577 10.7382 12.2175 10.9378 11.7544 11.1045C11.7243 11.1154 11.7109 11.1489 11.7256 11.1766C11.9809 11.6484 12.2724 12.0976 12.5934 12.5237C12.6068 12.5417 12.6309 12.5495 12.653 12.543C14.0421 12.133 15.4506 11.5145 16.9047 10.4956C16.9174 10.4866 16.9255 10.4731 16.9268 10.4583C17.2813 6.9594 16.3331 3.92013 14.4133 1.22582C14.4086 1.21682 14.4006 1.21038 14.3912 1.20652ZM5.68085 8.61486C4.84323 8.61486 4.15305 7.88112 4.15305 6.98001C4.15305 6.0789 4.82984 5.34516 5.68085 5.34516C6.53854 5.34516 7.22203 6.08534 7.20862 6.98001C7.20862 7.88112 6.53183 8.61486 5.68085 8.61486ZM11.3296 8.61486C10.492 8.61486 9.80184 7.88112 9.80184 6.98001C9.80184 6.0789 10.4786 5.34516 11.3296 5.34516C12.1873 5.34516 12.8708 6.08534 12.8574 6.98001C12.8574 7.88112 12.1873 8.61486 11.3296 8.61486Z" fill="#5865F2"/>
</svg>
