<svg width="16" height="16" viewBox="0 0 16 16" fill="none" xmlns="http://www.w3.org/2000/svg">
<path d="M15.8307 8.18006C15.8307 7.6534 15.784 7.1534 15.704 6.66673H8.17065V9.6734H12.484C12.2907 10.6601 11.724 11.4934 10.884 12.0601V14.0601H13.4573C14.964 12.6667 15.8307 10.6134 15.8307 8.18006Z" fill="#4285F4"/>
<path d="M8.17027 15.9996C10.3303 15.9996 12.1369 15.2796 13.4569 14.0596L10.8836 12.0596C10.1636 12.5396 9.25028 12.8329 8.17027 12.8329C6.08361 12.8329 4.31694 11.4263 3.68361 9.52628H1.03027V11.5863C2.34361 14.1996 5.04361 15.9996 8.17027 15.9996Z" fill="#34A853"/>
<path d="M3.68399 9.52642C3.51732 9.04642 3.43065 8.53308 3.43065 7.99975C3.43065 7.46642 3.52399 6.95309 3.68399 6.47309V4.41309H1.03065C0.483987 5.49309 0.170654 6.70642 0.170654 7.99975C0.170654 9.29308 0.483987 10.5064 1.03065 11.5864L3.68399 9.52642Z" fill="#FBBC05"/>
<path d="M8.17027 3.16667C9.35027 3.16667 10.4036 3.57334 11.2369 4.36667L13.5169 2.08667C12.1369 0.793334 10.3303 0 8.17027 0C5.04361 0 2.34361 1.8 1.03027 4.41334L3.68361 6.47334C4.31694 4.57334 6.08361 3.16667 8.17027 3.16667Z" fill="#EA4335"/>
</svg>
