<svg width="64" height="30" viewBox="0 0 64 30" fill="none" xmlns="http://www.w3.org/2000/svg">
<path d="M32.7797 13.3087C32.7797 13.3087 41.2397 6.37045 49.35 6.37045C53.825 6.37045 56.831 9.49965 56.831 14.737C56.831 19.9744 54.1044 23.5116 49.7695 23.5116C43.1738 23.5116 20.2425 5.62286 9.14863 5.62286C3.34553 5.62286 0 7.68585 0 13.8531C0 19.4308 5.60883 27.4704 13.6494 27.4704C20.8511 27.4704 26.539 21.4001 26.539 21.4001C26.539 21.4001 22.7121 24.1915 17.166 24.1915C11.62 24.1915 5.44121 18.342 5.44121 13.93C5.44121 12.6146 6.3051 10.565 8.91568 10.565C20.0345 10.565 38.8621 30 51.2609 30C55.9224 30 64 26.9344 64 15.1451C64 5.62286 58.998 0 50.9806 0C38.1169 0 32.7797 13.3087 32.7797 13.3087Z" fill="#BDF7FF"/>
</svg>
