<svg width="25" height="8" viewBox="0 0 25 8" fill="none" xmlns="http://www.w3.org/2000/svg">
<path d="M23.3184 0.110107H21.7468C21.2717 0.110107 20.9062 0.256301 20.6869 0.731431L17.6899 7.56599H19.8097C19.8097 7.56599 20.1752 6.65228 20.2483 6.43299C20.4676 6.43299 22.5509 6.43299 22.8433 6.43299C22.9164 6.68882 23.0991 7.52944 23.0991 7.52944H24.9996L23.3184 0.110107ZM20.8331 4.89795C21.0158 4.45937 21.6372 2.81469 21.6372 2.81469C21.6372 2.85124 21.8199 2.37611 21.893 2.12027L22.0392 2.77814C22.0392 2.77814 22.4412 4.56902 22.5143 4.9345H20.8331V4.89795Z" fill="#7A7A7A"/>
<path d="M17.8362 5.11678C17.8362 6.65181 16.4473 7.67517 14.291 7.67517C13.3773 7.67517 12.5001 7.49243 12.025 7.27314L12.3174 5.59191L12.5732 5.70155C13.2311 5.99394 13.6696 6.10359 14.4737 6.10359C15.0585 6.10359 15.6798 5.88429 15.6798 5.37262C15.6798 5.04368 15.424 4.82439 14.6199 4.45891C13.8524 4.09342 12.829 3.50865 12.829 2.44874C12.829 0.986807 14.2544 0 16.2646 0C17.0321 0 17.69 0.146194 18.092 0.328936L17.7996 1.93707L17.6534 1.79087C17.2879 1.64468 16.8128 1.49849 16.1184 1.49849C15.3509 1.53503 14.9854 1.86397 14.9854 2.15636C14.9854 2.48529 15.424 2.74113 16.1184 3.07007C17.2879 3.61829 17.8362 4.23962 17.8362 5.11678Z" fill="#7A7A7A"/>
<path d="M0 0.182571L0.0365484 0.036377H3.17971C3.61829 0.036377 3.94723 0.182571 4.05687 0.6577L4.75129 3.94706C4.05687 2.19273 2.44874 0.767345 0 0.182571Z" fill="#7A7A7A"/>
<path d="M9.17374 0.109791L5.99403 7.52912H3.83767L2.01025 1.31589C3.326 2.1565 4.42245 3.47225 4.82448 4.38596L5.04377 5.15347L7.01739 0.0732422H9.17374V0.109791Z" fill="#7A7A7A"/>
<path d="M10.0141 0.0732422H12.0242L10.745 7.52912H8.73486L10.0141 0.0732422Z" fill="#7A7A7A"/>
</svg>
