<svg width="47" height="15" viewBox="0 0 47 15" fill="none" xmlns="http://www.w3.org/2000/svg">
<path d="M43.8396 0.206543H40.8849C39.9917 0.206543 39.3045 0.481393 38.8923 1.37465L33.2578 14.2239H37.2432C37.2432 14.2239 37.9303 12.5061 38.0677 12.0938C38.48 12.0938 42.3966 12.0938 42.9463 12.0938C43.0837 12.5748 43.4273 14.1552 43.4273 14.1552H47.0003L43.8396 0.206543ZM39.1671 9.20787C39.5107 8.38332 40.6788 5.29126 40.6788 5.29126C40.6788 5.35998 41.0223 4.46671 41.1598 3.98573L41.4346 5.22255C41.4346 5.22255 42.1905 8.58946 42.3279 9.27658H39.1671V9.20787Z" fill="#F4F9FF"/>
<path d="M33.5323 9.61974C33.5323 12.5057 30.9212 14.4296 26.8672 14.4296C25.1494 14.4296 23.5003 14.086 22.607 13.6738L23.1567 10.513L23.6377 10.7191C24.8745 11.2688 25.6991 11.475 27.2107 11.475C28.3101 11.475 29.4782 11.0627 29.4782 10.1007C29.4782 9.48231 28.9972 9.07004 27.4856 8.38292C26.0426 7.69579 24.1187 6.59639 24.1187 4.60373C24.1187 1.85524 26.7985 0 30.5776 0C32.0206 0 33.2574 0.27485 34.0133 0.618412L33.4636 3.64176L33.1887 3.36691C32.5016 3.09206 31.6083 2.81721 30.3028 2.81721C28.8598 2.88592 28.1727 3.50433 28.1727 4.05403C28.1727 4.67244 28.9972 5.15343 30.3028 5.77184C32.5016 6.80253 33.5323 7.97064 33.5323 9.61974Z" fill="#F4F9FF"/>
<path d="M0 0.343697L0.0687124 0.0688477H5.97798C6.80253 0.0688477 7.42094 0.343697 7.62708 1.23696L8.93262 7.42108C7.62708 4.12288 4.60373 1.4431 0 0.343697Z" fill="white"/>
<path d="M17.2474 0.206408L11.2694 14.155H7.21541L3.77979 2.47392C6.25343 4.0543 8.31481 6.52795 9.07064 8.24576L9.48292 9.68872L13.1934 0.137695H17.2474V0.206408Z" fill="#F4F9FF"/>
<path d="M18.8269 0.137695H22.6061L20.2011 14.155H16.422L18.8269 0.137695Z" fill="#F4F9FF"/>
</svg>
